#define max_toggled_hover_width 14
#define max_toggled_hover_height 14
static unsigned char max_toggled_hover_bits[] = {
   0x00, 0x00, 0xe0, 0x01, 0xf8, 0x07, 0x7c, 0x0f, 0x7c, 0x0e, 0x7e, 0x1c,
   0x7e, 0x18, 0x86, 0x1f, 0x8e, 0x1f, 0x9c, 0x0f, 0xbc, 0x0f, 0xf8, 0x07,
   0xe0, 0x01, 0x00, 0x00 };
