/* XPM */
static char *dummy[]={
"26 24 23 1",
". c #3b3e3f",
"# c #3e3e3e",
"a c #3f3f3f",
"b c #464646",
"i c #474747",
"u c #4b4b4b",
"h c #4c4c4c",
"c c #4e4e4e",
"d c #535353",
"f c #545454",
"e c #565656",
"g c #575757",
"l c #656565",
"m c #666666",
"s c #676767",
"t c #d7d7d7",
"j c #d9d9d9",
"k c #dddddd",
"n c #dedede",
"o c #e1e1e1",
"p c #e2e2e2",
"q c #e3e3e3",
"r c #e5e5e5",
"..........................",
"..........................",
"..#####abcdeedcba#####....",
"..####bfggggggggdb####....",
"..###hggggggggggggh###....",
"..##hggggggggggggggh##....",
"..#bggggggggggggggggb#....",
"..afggggggggggggggggf#....",
"..igggggjklggmnogggggb....",
"..cgggggkopllqokgggggc....",
"..dggggglqoppoplgggggd....",
"..egggggglooorsgggggge....",
"..egggggglooorsgggggge....",
"..dggggglqoppoqlgggggd....",
"..cgggggnoqllpokgggggc....",
"..bgggggokmgglktgggggb....",
"..afggggggggggggggggd#....",
"..#bggggggggggggggggb#....",
"..##hggggggggggggggu##....",
"..###hggggggggggggu###....",
"..####bdggggggggdb####....",
"..#####abcdeedcba#####....",
"..........................",
".........................."};
