/* XPM */
static char *dummy[]={
"26 24 41 1",
". c #2c2c2c",
"i c #2e2c2c",
"# c #302d2b",
"n c #302d2c",
"L c #623525",
"J c #633525",
"l c #643525",
"h c #663625",
"e c #673625",
"a c #683625",
"o c #693624",
"K c #8c3c20",
"k c #8d3c20",
"j c #8e3c20",
"z c #9f3f1e",
"H c #a03f1e",
"b c #a1401e",
"M c #c34519",
"c c #c44519",
"A c #c44619",
"f c #c64619",
"m c #c74619",
"B c #d64817",
"d c #d74917",
"g c #df4a16",
"C c #e25929",
"r c #e25a2a",
"s c #e25a2b",
"F c #e25b2c",
"G c #e25c2d",
"I c #f7d4c7",
"u c #f7d4c8",
"p c #f8d6ca",
"y c #f8dacf",
"q c #f9dbd0",
"t c #f9dcd1",
"D c #f9dfd6",
"w c #f9e0d7",
"x c #fae0d8",
"E c #fae3da",
"v c #ffffff",
"..........................",
"..........................",
".......#abcddcba#.........",
"......efggggggggfh........",
"....ijggggggggggggji......",
"....jggggggggggggggk......",
"...eggggggggggggggggl.....",
"..#mggggggggggggggggfn....",
"..ogggggpqrggstuggggga....",
"..bgggggqvwrrxvygggggz....",
"..AgggggrxvwwvwrgggggA....",
"..BggggggCDvvEFggggggB....",
"..BggggggCDvvEGggggggB....",
"..Agggggrxvwwvxrgggggc....",
"..Hgggggtvxrrwvqgggggz....",
"..aggggguqsggrqIggggge....",
"..#fggggggggggggggggfn....",
"...hggggggggggggggggJ.....",
"....jggggggggggggggK......",
"....ikggggggggggggKi......",
"......lfggggggggfL........",
".......#azMddMza#.........",
"..........................",
".........................."};
