/* XPM */
static char *dummy[]={
"26 24 41 1",
". c #2c2c2c",
"k c #2e2d2c",
"# c #302d2c",
"L c #65392a",
"J c #66392a",
"o c #673a2a",
"j c #693a2a",
"f c #6a3a2a",
"w c #6b3b2a",
"a c #6c3b2a",
"K c #914428",
"n c #924428",
"l c #934428",
"m c #944428",
"B c #a54827",
"H c #a64827",
"e c #a74927",
"b c #a84927",
"M c #cb5126",
"c c #cc5126",
"C c #cd5126",
"i c #ce5226",
"g c #cf5226",
"p c #d05226",
"D c #df5625",
"d c #e15625",
"h c #e95825",
"E c #eb6637",
"s c #eb6638",
"t c #eb6739",
"G c #eb683a",
"I c #fad7cb",
"v c #fad8cc",
"q c #fad9cd",
"A c #fbddd3",
"r c #fbded3",
"u c #fbded4",
"y c #fbe2d9",
"z c #fbe3da",
"F c #fce5dd",
"x c #ffffff",
"..........................",
"..........................",
".......#abcddcea#.........",
"......fghhhhhhhhij........",
"....klhhhhhhhhhhhhlk......",
"....mhhhhhhhhhhhhhhn......",
"...fhhhhhhhhhhhhhhhho.....",
"..#phhhhhhhhhhhhhhhhg#....",
"..ahhhhhqrshhtuvhhhhhw....",
"..ehhhhhrxysszxAhhhhhB....",
"..ChhhhhszxyyxyshhhhhC....",
"..DhhhhhhEyxxFGhhhhhhD....",
"..DhhhhhhEyxxFGhhhhhhD....",
"..Chhhhhszxyyxzshhhhhc....",
"..HhhhhhuxzssyxrhhhhhB....",
"..ahhhhhvrthhsrIhhhhhf....",
"..#ghhhhhhhhhhhhhhhhi#....",
"...jhhhhhhhhhhhhhhhhJ.....",
"....lhhhhhhhhhhhhhhK......",
"....knhhhhhhhhhhhhKk......",
"......oihhhhhhhhiL........",
".......#wBMddMBw#.........",
"..........................",
".........................."};
