/* XPM */
static char *dummy[]={
"26 24 39 1",
". c #2c2c2c",
"k c #2e2c2c",
"o c #2f2c2c",
"# c #302d2b",
"J c #5b3325",
"n c #5d3324",
"j c #5e3324",
"f c #5f3324",
"a c #603324",
"p c #613424",
"K c #7f381f",
"l c #80381f",
"m c #81381f",
"H c #903a1c",
"A c #903a1d",
"e c #913a1c",
"b c #923a1c",
"c c #af3f18",
"B c #b03f18",
"i c #b13f17",
"g c #b23f17",
"C c #bf4115",
"d c #c04115",
"h c #c74214",
"D c #cc5227",
"s c #cc5228",
"t c #cc5329",
"F c #cc542a",
"G c #cc552b",
"I c #f2d2c7",
"v c #f2d3c8",
"q c #f2d4ca",
"z c #f4d8cf",
"r c #f4d9d0",
"u c #f4dad1",
"x c #f5ded6",
"y c #f6dfd7",
"E c #f6e1da",
"w c #ffffff",
"..........................",
"..........................",
".......#abcddcea#.........",
"......fghhhhhhhhij........",
"....klhhhhhhhhhhhhlk......",
"....mhhhhhhhhhhhhhhl......",
"...fhhhhhhhhhhhhhhhhn.....",
"..#ghhhhhhhhhhhhhhhhgo....",
"..phhhhhqrshhtuvhhhhha....",
"..ehhhhhrwxssywzhhhhhA....",
"..BhhhhhsywxxwxshhhhhB....",
"..ChhhhhhDxwwEFhhhhhhC....",
"..ChhhhhhDxwwEGhhhhhhC....",
"..Bhhhhhsywxxwyshhhhhc....",
"..HhhhhhuwyssxwrhhhhhA....",
"..ahhhhhvrthhsrIhhhhhf....",
"..#ghhhhhhhhhhhhhhhhio....",
"...jhhhhhhhhhhhhhhhhJ.....",
"....lhhhhhhhhhhhhhhK......",
"....klhhhhhhhhhhhhKk......",
"......nihhhhhhhhiJ........",
".......#aAcddcAa#.........",
"..........................",
".........................."};
