/* XPM */
static char *dummy[]={
"6 1 3 1",
". c #1f1f1f",
"a c #262626",
"# c #2c2c2c",
".####a"};
