/* XPM */
static char *dummy[]={
"24 24 2 1",
". c #3b3e3f",
"# c #e0e0e0",
"........................",
"........................",
"........................",
"........................",
"........................",
"........................",
"........................",
"........................",
"...........##...........",
"...........##...........",
"...........##...........",
"........########........",
"........########........",
"...........##...........",
"...........##...........",
"...........##...........",
"........................",
"........................",
"........................",
"........................",
"........................",
"........................",
"........................",
"........................"};
