/* XPM */
static char *dummy[]={
"24 24 15 1",
". c #2c2c2c",
"# c #2d2d2d",
"m c #353535",
"a c #363636",
"g c #3c3c3c",
"f c #3d3d3d",
"b c #404040",
"c c #464646",
"d c #494949",
"e c #4a4a4a",
"k c #565656",
"l c #cecece",
"j c #cfcfcf",
"h c #d0d0d0",
"i c #f7f7f7",
"........................",
"........................",
".......#abcddcba#.......",
"......aceeeeeeeeca......",
".....feeeeeeeeeeeef.....",
"....feeeeeeeeeeeeeeg....",
"...aeeeeeeeeeeeeeeeea...",
"..#ceeeeeeeeeeeeeeeec#..",
"..aeeeeehiiiiiijeeeeea..",
"..beeeeeiiiiiiiieeeeeb..",
"..ceeeeeiiiiiiiieeeeec..",
"..deeeeeiikeekiieeeeed..",
"..deeeeeiieeeeiieeeeed..",
"..ceeeeeiikeekiieeeeec..",
"..beeeeeiiiiiiiieeeeeb..",
"..aeeeeejiiiiiileeeeea..",
"..#ceeeeeeeeeeeeeeeec#..",
"...aeeeeeeeeeeeeeeeem...",
"....feeeeeeeeeeeeeeg....",
".....geeeeeeeeeeeeg.....",
"......aceeeeeeeecm......",
".......#abcddcba#.......",
"........................",
"........................"};
