/* XPM */
static char *dummy[]={
"24 24 6 1",
". c #3b3e3f",
"d c #3e3e3e",
"c c #454545",
"b c #858585",
"# c #868686",
"a c #9b9b9b",
"........................",
"........................",
"........................",
"........................",
"........................",
"........................",
"........................",
"........................",
"........#aaaaaab........",
"........aaaaaaaa........",
"........aacddcaa........",
"........aaddddaa........",
"........aaddddaa........",
"........aacddcaa........",
"........aaaaaaaa........",
"........baaaaaa#........",
"........................",
"........................",
"........................",
"........................",
"........................",
"........................",
"........................",
"........................"};
