/* XPM */
static char *dummy[]={
"24 24 7 1",
". c #2c2c2c",
"c c #3a3a3a",
"d c #3b3b3b",
"e c #c7c7c7",
"b c #c8c8c8",
"# c #c9c9c9",
"a c #f7f7f7",
"........................",
"........................",
"........................",
"........................",
"........................",
"........................",
"........................",
"........................",
"........#aaaaaab........",
"........aaaaaaaa........",
"........aaaaaaaa........",
"........aac..daa........",
"........aa....aa........",
"........aad..daa........",
"........aaaaaaaa........",
"........baaaaaae........",
"........................",
"........................",
"........................",
"........................",
"........................",
"........................",
"........................",
"........................"};
