/* XPM */
static char *dummy[]={
"24 24 19 1",
". c #2c2c2c",
"# c #2d2d2d",
"q c #3b3b3b",
"i c #3c3c3c",
"a c #3d3d3d",
"h c #474747",
"g c #484848",
"b c #4d4d4d",
"c c #575757",
"e c #585858",
"m c #5c5c5c",
"d c #5d5d5d",
"f c #5f5f5f",
"n c #696969",
"o c #6a6a6a",
"p c #d3d3d3",
"l c #d4d4d4",
"j c #d5d5d5",
"k c #f7f7f7",
"........................",
"........................",
".......#abcddcba#.......",
"......aeffffffffea......",
"....#gffffffffffffg#....",
"....gffffffffffffffh....",
"...affffffffffffffffi...",
"..#effffffffffffffffe#..",
"..afffffjkkkkkklfffffa..",
"..bfffffkkkkkkkkfffffb..",
"..cfffffkkkkkkkkfffffc..",
"..mfffffkknffokkfffffm..",
"..mfffffkkffffkkfffffm..",
"..cfffffkkoffokkfffffc..",
"..bfffffkkkkkkkkfffffb..",
"..affffflkkkkkkpfffffa..",
"..#effffffffffffffffe#..",
"...iffffffffffffffffi...",
"....gffffffffffffffh....",
"....#hffffffffffffh#....",
"......ieffffffffeq......",
".......#abcddcba#.......",
"........................",
"........................"};
