/* XPM */
static char *dummy[]={
"24 24 14 1",
". c #2c2c2c",
"# c #2d2d2d",
"l c #3b3b3b",
"i c #3c3c3c",
"a c #3d3d3d",
"h c #474747",
"g c #484848",
"b c #4d4d4d",
"c c #575757",
"e c #585858",
"k c #5c5c5c",
"d c #5d5d5d",
"f c #5f5f5f",
"j c #f7f7f7",
"........................",
"........................",
".......#abcddcba#.......",
"......aeffffffffea......",
"....#gffffffffffffg#....",
"....gffffffffffffffh....",
"...affffffffffffffffi...",
"..#effffffffffffffffe#..",
"..affffffffjjffffffffa..",
"..bffffffffjjffffffffb..",
"..cffffffffjjffffffffc..",
"..kfffffjjjjjjjjfffffk..",
"..kfffffjjjjjjjjfffffk..",
"..cffffffffjjffffffffc..",
"..bffffffffjjffffffffb..",
"..affffffffjjffffffffa..",
"..#effffffffffffffffe#..",
"...iffffffffffffffffi...",
"....gffffffffffffffh....",
"....#hffffffffffffh#....",
"......ieffffffffel......",
".......#abcddcba#.......",
"........................",
"........................"};
