/* XPM */
static char *dummy[]={
"24 24 17 1",
". c #3b3e3f",
"a c #454545",
"f c #474747",
"j c #484848",
"o c #494949",
"c c #6f6f6f",
"m c #737373",
"l c #8a8a8a",
"e c #8e8e8e",
"# c #909090",
"k c #999999",
"b c #b8b8b8",
"n c #bcbcbc",
"g c #dedede",
"i c #e1e1e1",
"h c #eaeaea",
"d c #f7f7f7",
"........................",
"........................",
"........................",
"........................",
"........................",
"........................",
"............#..abc......",
"............defgdb......",
"............ddhdij......",
"............dddhj.......",
"............dddd#.......",
"............dddddk......",
"......lddddd............",
".......ldddd............",
".......ahddd............",
"......agdhdd............",
"......bdijed............",
"......mno..#............",
"........................",
"........................",
"........................",
"........................",
"........................",
"........................"};
