/* XPM */
static char *dummy[]={
"24 24 25 1",
". c #2c2c2c",
"# c #2d2d2d",
"w c #3b3b3b",
"l c #3c3c3c",
"a c #3d3d3d",
"h c #474747",
"g c #484848",
"b c #4d4d4d",
"c c #575757",
"e c #585858",
"r c #5c5c5c",
"d c #5d5d5d",
"f c #5f5f5f",
"k c #6f6f6f",
"u c #737373",
"t c #8a8a8a",
"n c #8e8e8e",
"i c #909090",
"s c #999999",
"j c #b8b8b8",
"v c #bcbcbc",
"o c #dedede",
"q c #e1e1e1",
"p c #eaeaea",
"m c #f7f7f7",
"........................",
"........................",
".......#abcddcba#.......",
"......aeffffffffea......",
"....#gffffffffffffg#....",
"....gffffffffffffffh....",
"...affffffffifffjkffl...",
"..#effffffffmnfomjffe#..",
"..afffffffffmmpmqffffa..",
"..bfffffffffmmmpfffffb..",
"..cfffffffffmmmmiffffc..",
"..rfffffffffmmmmmsfffr..",
"..rffftmmmmmfffffffffr..",
"..cfffftmmmmfffffffffc..",
"..bfffffpmmmfffffffffb..",
"..affffompmmfffffffffa..",
"..#effjmqfnmffffffffe#..",
"...lffuvfffiffffffffl...",
"....gffffffffffffffh....",
"....#hffffffffffffh#....",
"......leffffffffew......",
".......#abcddcba#.......",
"........................",
"........................"};
