/* XPM */
static char *dummy[]={
"24 24 25 1",
". c #2c2c2c",
"# c #2d2d2d",
"w c #353535",
"a c #363636",
"g c #3c3c3c",
"f c #3d3d3d",
"b c #404040",
"i c #454545",
"c c #464646",
"n c #474747",
"r c #484848",
"d c #494949",
"e c #4a4a4a",
"k c #6f6f6f",
"u c #737373",
"t c #8a8a8a",
"m c #8e8e8e",
"h c #909090",
"s c #999999",
"j c #b8b8b8",
"v c #bcbcbc",
"o c #dedede",
"q c #e1e1e1",
"p c #eaeaea",
"l c #f7f7f7",
"........................",
"........................",
".......#abcddcba#.......",
"......aceeeeeeeeca......",
".....feeeeeeeeeeeef.....",
"....feeeeeeeeeeeeeeg....",
"...aeeeeeeeeheeijkeea...",
"..#ceeeeeeeelmnoljeec#..",
"..aeeeeeeeeellplqreeea..",
"..beeeeeeeeelllpreeeeb..",
"..ceeeeeeeeellllheeeec..",
"..deeeeeeeeelllllseeed..",
"..deeetllllleeeeeeeeed..",
"..ceeeetlllleeeeeeeeec..",
"..beeeeipllleeeeeeeeeb..",
"..aeeeiolplleeeeeeeeea..",
"..#ceejlqrmleeeeeeeec#..",
"...aeeuvdeeheeeeeeeew...",
"....feeeeeeeeeeeeeeg....",
".....geeeeeeeeeeeeg.....",
"......aceeeeeeeecw......",
".......#abcddcba#.......",
"........................",
"........................"};
