/* XPM */
static char *dummy[]={
"24 24 2 1",
". c #2c2c2c",
"# c #f7f7f7",
"........................",
"........................",
"........................",
"........................",
"........................",
"........................",
"........................",
"........................",
"...........##...........",
"...........##...........",
"...........##...........",
"........########........",
"........########........",
"...........##...........",
"...........##...........",
"...........##...........",
"........................",
"........................",
"........................",
"........................",
"........................",
"........................",
"........................",
"........................"};
