/* XPM */
static char *dummy[]={
"24 22 2 1",
". c #2c2c2c",
"# c #ffffff",
"........................",
"........................",
"........................",
"........................",
"........................",
"........................",
"........................",
"........................",
"........................",
".........########.......",
"..........######........",
"...........####.........",
"............##..........",
"........................",
"........................",
"........................",
"........................",
"........................",
"........................",
"........................",
"........................",
"........................"};
