/* XPM */
static char *dummy[]={
"24 22 4 1",
". c None",
"a c #212121",
"b c #397fc6",
"# c #686868",
"...####################.",
"..#aaaaaaaaaaaaaaaaaaaa#",
"..#aaaaaaaaaaaaaaaaaaaa#",
"..#aaaaaaaaaaaaaaaaaaaa#",
"..#aaaaaaaaaaaaaaaaaaaa#",
"..#aaaaaaaaaaaaaaaaaaaa#",
"..#aaaaaaaaaaaaaaaaaaaa#",
"..#aaaaaaaaaaaaaaaaaaaa#",
"..#aaaaaaaaaaaaaaaaaaaa#",
"..#aaaaaabbbbbbbbaaaaaa#",
"..#aaaaaaabbbbbbaaaaaaa#",
"..#aaaaaaaabbbbaaaaaaaa#",
"..#aaaaaaaaabbaaaaaaaaa#",
"..#aaaaaaaaaaaaaaaaaaaa#",
"..#aaaaaaaaaaaaaaaaaaaa#",
"..#aaaaaaaaaaaaaaaaaaaa#",
"..#aaaaaaaaaaaaaaaaaaaa#",
"..#aaaaaaaaaaaaaaaaaaaa#",
"..#aaaaaaaaaaaaaaaaaaaa#",
"..#aaaaaaaaaaaaaaaaaaaa#",
"..##aaaaaaaaaaaaaaaaaa##",
"...####################."};
