/* XPM */
static char *dummy[]={
"7 32 5 1",
". c #191919",
"c c #252525",
"b c #2c2c2c",
"a c #2f2f2f",
"# c #353535",
".......",
"#######",
"aaaaaaa",
"bbbbbbb",
"bbbbbbb",
"bbbbbbb",
"bbbbbbb",
"bbbbbbb",
"bbbbbbb",
"bbbbbbb",
"bbbbbbb",
"bbbbbbb",
"bbbbbbb",
"bbbbbbb",
"bbbbbbb",
"bbbbbbb",
"bbbbbbb",
"bbbbbbb",
"bbbbbbb",
"bbbbbbb",
"bbbbbbb",
"bbbbbbb",
"bbbbbbb",
"bbbbbbb",
"bbbbbbb",
"bbbbbbb",
"bbbbbbb",
"bbbbbbb",
"bbbbbbb",
"bbbbbbb",
"bbbbbbb",
"ccccccc"};
