/* XPM */
static char *dummy[]={
"8 32 22 1",
"b c None",
"a c #111111",
"g c #121212",
"l c #161616",
"# c #191919",
"s c #1d1d1d",
". c #1f1f1f",
"f c #202020",
"k c #272727",
"t c #282828",
"p c #2d2d2d",
"e c #2e2e2e",
"q c #373737",
"r c #3d3d3d",
"d c #3e3e3e",
"m c #3f3f3f",
"h c #404040",
"o c #434343",
"i c #444444",
"j c #454545",
"n c #474747",
"c c #4b4b4b",
".#abbbbb",
"cdefgbbb",
"dhijklbb",
"dddmnkgb",
"dddddofb",
"dddddmpa",
"ddddddq#",
"ddddddrs",
"ddddddm.",
"ddddddd.",
"ddddddd.",
"ddddddd.",
"ddddddd.",
"ddddddd.",
"ddddddd.",
"ddddddd.",
"ddddddd.",
"ddddddd.",
"ddddddd.",
"ddddddd.",
"ddddddd.",
"ddddddd.",
"ddddddd.",
"ddddddd.",
"ddddddd.",
"ddddddd.",
"ddddddd.",
"ddddddd.",
"ddddddd.",
"ddddddd.",
"ddddddd.",
"ttttttt."};
