/* XPM */
static char *dummy[]={
"8 32 18 1",
". c None",
"# c #111111",
"c c #121212",
"h c #161616",
"a c #191919",
"b c #1d1d1d",
"d c #1f1f1f",
"i c #252525",
"o c #292929",
"e c #2b2b2b",
"n c #2c2c2c",
"m c #2d2d2d",
"p c #2e2e2e",
"l c #2f2f2f",
"k c #333333",
"f c #353535",
"j c #383838",
"g c #3a3a3a",
".....#ab",
"...cdefg",
"..hijklm",
".cifmnnn",
".dfnnnnn",
"#omnnnnn",
"apnnnnnn",
"bpnnnnnn",
"dmnnnnnn",
"dnnnnnnn",
"dnnnnnnn",
"dnnnnnnn",
"dnnnnnnn",
"dnnnnnnn",
"dnnnnnnn",
"dnnnnnnn",
"dnnnnnnn",
"dnnnnnnn",
"dnnnnnnn",
"dnnnnnnn",
"dnnnnnnn",
"dnnnnnnn",
"dnnnnnnn",
"dnnnnnnn",
"dnnnnnnn",
"dnnnnnnn",
"dnnnnnnn",
"dnnnnnnn",
"dnnnnnnn",
"dnnnnnnn",
"dnnnnnnn",
"diiiiiii"};
