/* XPM */
static char *dummy[]={
"8 32 22 1",
". c None",
"# c #111111",
"c c #121212",
"h c #161616",
"a c #191919",
"r c #1d1d1d",
"b c #1f1f1f",
"d c #202020",
"i c #272727",
"t c #282828",
"p c #2d2d2d",
"e c #2e2e2e",
"q c #373737",
"s c #3d3d3d",
"f c #3e3e3e",
"n c #3f3f3f",
"l c #404040",
"o c #434343",
"k c #444444",
"j c #454545",
"m c #474747",
"g c #4b4b4b",
".....#ab",
"...cdefg",
"..hijklf",
".cimnfff",
".dofffff",
"#pnfffff",
"aqffffff",
"rsffffff",
"bnffffff",
"bfffffff",
"bfffffff",
"bfffffff",
"bfffffff",
"bfffffff",
"bfffffff",
"bfffffff",
"bfffffff",
"bfffffff",
"bfffffff",
"bfffffff",
"bfffffff",
"bfffffff",
"bfffffff",
"bfffffff",
"bfffffff",
"bfffffff",
"bfffffff",
"bfffffff",
"bfffffff",
"bfffffff",
"bfffffff",
"bttttttt"};
