/* XPM */
static char *dummy[]={
"8 32 18 1",
"b c None",
"a c #111111",
"g c #121212",
"m c #161616",
"# c #191919",
". c #1d1d1d",
"f c #1f1f1f",
"l c #252525",
"o c #292929",
"e c #2b2b2b",
"n c #2c2c2c",
"h c #2d2d2d",
"p c #2e2e2e",
"i c #2f2f2f",
"j c #333333",
"d c #353535",
"k c #383838",
"c c #3a3a3a",
".#abbbbb",
"cdefgbbb",
"hijklmbb",
"nnnhdlgb",
"nnnnndfb",
"nnnnnhoa",
"nnnnnnp#",
"nnnnnnp.",
"nnnnnnhf",
"nnnnnnnf",
"nnnnnnnf",
"nnnnnnnf",
"nnnnnnnf",
"nnnnnnnf",
"nnnnnnnf",
"nnnnnnnf",
"nnnnnnnf",
"nnnnnnnf",
"nnnnnnnf",
"nnnnnnnf",
"nnnnnnnf",
"nnnnnnnf",
"nnnnnnnf",
"nnnnnnnf",
"nnnnnnnf",
"nnnnnnnf",
"nnnnnnnf",
"nnnnnnnf",
"nnnnnnnf",
"nnnnnnnf",
"nnnnnnnf",
"lllllllf"};
