/* XPM */
static char *dummy[]={
"14 14 3 1",
"a c None",
". c #191c1c",
"# c #3b3e3f",
".#####aaaaaaaa",
".#####aaaaaaaa",
".#####aaaaaaaa",
".#####aaaaaaaa",
".#####aaaaaaaa",
".#####aaaaaaaa",
".#####aaaaaaaa",
".#####aaaaaaaa",
".#############",
".#############",
".#############",
".#############",
".#############",
".............."};
