/* XPM */
static char *dummy[]={
"24 22 3 1",
"# c None",
". c #323737",
"a c #ffffff",
"......................##",
"......................##",
"......................##",
"......................##",
"......................##",
"......................##",
"......................##",
".......aa....aa.......##",
".......aaa..aaa.......##",
"........aaaaaa........##",
".........aaaa.........##",
".........aaaa.........##",
"........aaaaaa........##",
".......aaa..aaa.......##",
".......aa....aa.......##",
"......................##",
"......................##",
"......................##",
"......................##",
"......................##",
"......................##",
"......................##"};
