/* XPM */
static char *dummy[]={
"24 22 4 1",
". c None",
"a c #323737",
"# c #686868",
"b c #fefefe",
".####################...",
"#aaaaaaaaaaaaaaaaaaaa#..",
"#aaaaaaaaaaaaaaaaaaaa#..",
"#aaaaaaaaaaaaaaaaaaaa#..",
"#aaaaaaaaaaaaaaaaaaaa#..",
"#aaaaaaaaaaaaaaaaaaaa#..",
"#aaaaaaaaaaaaaaaaaaaa#..",
"#aaaaaabbaaaabbaaaaaa#..",
"#aaaaaabbbaabbbaaaaaa#..",
"#aaaaaaabbbbbbaaaaaaa#..",
"#aaaaaaaabbbbaaaaaaaa#..",
"#aaaaaaaabbbbaaaaaaaa#..",
"#aaaaaaabbbbbbaaaaaaa#..",
"#aaaaaabbbaabbbaaaaaa#..",
"#aaaaaabbaaaabbaaaaaa#..",
"#aaaaaaaaaaaaaaaaaaaa#..",
"#aaaaaaaaaaaaaaaaaaaa#..",
"#aaaaaaaaaaaaaaaaaaaa#..",
"#aaaaaaaaaaaaaaaaaaaa#..",
"#aaaaaaaaaaaaaaaaaaaa#..",
"##aaaaaaaaaaaaaaaaaa##..",
".####################..."};
