/* XPM */
static char *dummy[]={
"22 22 2 1",
". c #3b3e3f",
"# c #686868",
"......................",
"......................",
"......................",
"......................",
"......................",
"......................",
"......................",
"......................",
"......................",
"......................",
"......................",
"......................",
"......................",
".......########.......",
".......########.......",
"......................",
"......................",
"......................",
"......................",
"......................",
"......................",
"......................"};
