/* XPM */
static char *dummy[]={
"22 22 2 1",
". c #323737",
"# c #ffffff",
"......................",
"......................",
"......................",
"......................",
"......................",
"......................",
"......................",
"..........##..........",
"..........##..........",
"..........##..........",
".......########.......",
".......########.......",
"..........##..........",
"..........##..........",
"..........##..........",
"......................",
"......................",
"......................",
"......................",
"......................",
"......................",
"......................"};
