/* XPM */
static char *dummy[]={
"22 22 4 1",
". c None",
"a c #3b3e3f",
"# c #686868",
"b c #fefefe",
".####################.",
"#aaaaaaaaaaaaaaaaaaaa#",
"#aaaaaaaaaaaaaaaaaaaa#",
"#aaaaaaaaaaaaaaaaaaaa#",
"#aaaaaaaaaaaaaaaaaaaa#",
"#aaaaaaaaaaaaaaaaaaaa#",
"#aaaaaaaaaaaaaaaaaaaa#",
"#aaaaaaaaabbaaaaaaaaa#",
"#aaaaaaaaabbaaaaaaaaa#",
"#aaaaaaaaabbaaaaaaaaa#",
"#aaaaaabbbbbbbbaaaaaa#",
"#aaaaaabbbbbbbbaaaaaa#",
"#aaaaaaaaabbaaaaaaaaa#",
"#aaaaaaaaabbaaaaaaaaa#",
"#aaaaaaaaabbaaaaaaaaa#",
"#aaaaaaaaaaaaaaaaaaaa#",
"#aaaaaaaaaaaaaaaaaaaa#",
"#aaaaaaaaaaaaaaaaaaaa#",
"#aaaaaaaaaaaaaaaaaaaa#",
"#aaaaaaaaaaaaaaaaaaaa#",
"##aaaaaaaaaaaaaaaaaa##",
".####################."};
