/* XPM */
static char *dummy[]={
"24 22 3 1",
". c None",
"# c #323737",
"a c #ffffff",
"..######################",
"..######################",
"..######################",
"..######################",
"..######################",
"..######################",
"..######################",
"..######################",
"..######################",
"..#######aaaaaaaa#######",
"..########aaaaaa########",
"..#########aaaa#########",
"..##########aa##########",
"..######################",
"..######################",
"..######################",
"..######################",
"..######################",
"..######################",
"..######################",
"..######################",
"..######################"};
