/* XPM */
static char *dummy[]={
"7 29 20 1",
". c None",
"# c #0e1010",
"b c #0f1010",
"f c #121414",
"n c #151717",
"p c #181a1a",
"a c #191c1c",
"c c #1b1d1d",
"r c #1f2222",
"g c #232626",
"m c #292d2d",
"d c #2a2e2e",
"o c #333838",
"q c #383e3e",
"j c #393f3f",
"k c #3a4040",
"l c #3e4444",
"i c #3f4545",
"h c #414747",
"e c #464b4b",
".....#a",
"...bcde",
"..fghij",
".bghkjj",
".cljjjj",
"#mkjjjj",
"nojjjjj",
"pqjjjjj",
"akjjjjj",
"ajjjjjj",
"ajjjjjj",
"ajjjjjj",
"ajjjjjj",
"ajjjjjj",
"ajjjjjj",
"ajjjjjj",
"ajjjjjj",
"ajjjjjj",
"ajjjjjj",
"ajjjjjj",
"ajjjjjj",
"ajjjjjj",
"ajjjjjj",
"ajjjjjj",
"ajjjjjj",
"ajjjjjj",
"ajjjjjj",
"ajjjjjj",
"arrrrrr"};
