/* XPM */
static char *dummy[]={
"7 29 20 1",
"a c None",
"# c #0e1010",
"e c #0f1010",
"j c #121414",
"o c #151717",
"q c #181a1a",
". c #191c1c",
"d c #1b1d1d",
"r c #1f2222",
"i c #232626",
"m c #292d2d",
"c c #2a2e2e",
"n c #333838",
"p c #383e3e",
"f c #393f3f",
"k c #3a4040",
"l c #3e4444",
"g c #3f4545",
"h c #414747",
"b c #464b4b",
".#aaaaa",
"bcdeaaa",
"fghijaa",
"ffkhiea",
"fffflda",
"ffffkm#",
"fffffno",
"fffffpq",
"fffffk.",
"ffffff.",
"ffffff.",
"ffffff.",
"ffffff.",
"ffffff.",
"ffffff.",
"ffffff.",
"ffffff.",
"ffffff.",
"ffffff.",
"ffffff.",
"ffffff.",
"ffffff.",
"ffffff.",
"ffffff.",
"ffffff.",
"ffffff.",
"ffffff.",
"ffffff.",
"rrrrrr."};
