/* XPM */
static char *dummy[]={
"7 29 22 1",
"a c None",
"# c #0e1010",
"e c #0f1010",
"j c #121414",
"q c #151717",
"s c #181a1a",
". c #191c1c",
"d c #1c1e1e",
"n c #1c1f1f",
"t c #1f2222",
"i c #282c2c",
"o c #2f3333",
"c c #303434",
"f c #323737",
"k c #333838",
"r c #343939",
"p c #353939",
"g c #383d3d",
"m c #3a3f3f",
"l c #3b403f",
"h c #3d4242",
"b c #3f4444",
".#aaaaa",
"bcdeaaa",
"fghijaa",
"ffkliea",
"ffffmna",
"ffffko#",
"fffffpq",
"fffffrs",
"fffffk.",
"ffffff.",
"ffffff.",
"ffffff.",
"ffffff.",
"ffffff.",
"ffffff.",
"ffffff.",
"ffffff.",
"ffffff.",
"ffffff.",
"ffffff.",
"ffffff.",
"ffffff.",
"ffffff.",
"ffffff.",
"ffffff.",
"ffffff.",
"ffffff.",
"ffffff.",
"tttttt."};
