/* XPM */
static char *dummy[]={
"7 29 22 1",
". c None",
"# c #0e1010",
"b c #0f1010",
"f c #121414",
"p c #151717",
"r c #181a1a",
"a c #191c1c",
"c c #1c1e1e",
"m c #1c1f1f",
"t c #1f2222",
"g c #282c2c",
"o c #2f3333",
"d c #303434",
"j c #323737",
"l c #333838",
"s c #343939",
"q c #353939",
"i c #383d3d",
"n c #3a3f3f",
"k c #3b403f",
"h c #3d4242",
"e c #3f4444",
".....#a",
"...bcde",
"..fghij",
".bgkljj",
".mnjjjj",
"#oljjjj",
"pqjjjjj",
"rsjjjjj",
"aljjjjj",
"ajjjjjj",
"ajjjjjj",
"ajjjjjj",
"ajjjjjj",
"ajjjjjj",
"ajjjjjj",
"ajjjjjj",
"ajjjjjj",
"ajjjjjj",
"ajjjjjj",
"ajjjjjj",
"ajjjjjj",
"ajjjjjj",
"ajjjjjj",
"ajjjjjj",
"ajjjjjj",
"ajjjjjj",
"ajjjjjj",
"ajjjjjj",
"atttttt"};
